<?xml version="1.0" standalone="no"?>
<!DOCTYPE svg PUBLIC "-//W3C//DTD SVG 20010904//EN"
 "http://www.w3.org/TR/2001/REC-SVG-20010904/DTD/svg10.dtd">
<svg version="1.0" xmlns="http://www.w3.org/2000/svg"
 width="512.000000pt" height="512.000000pt" viewBox="0 0 512.000000 512.000000"
 preserveAspectRatio="xMidYMid meet">
<metadata>
Created by potrace 1.14, written by Peter Selinger 2001-2017
</metadata>
<g transform="translate(0.000000,512.000000) scale(0.100000,-0.100000)"
fill="#000000" stroke="none">
<path d="M670 4618 c0 -9 4 -27 9 -40 6 -13 56 -165 111 -338 113 -349 187
-579 292 -900 142 -439 169 -519 229 -705 34 -104 93 -287 131 -405 38 -118
96 -296 128 -395 32 -99 82 -252 111 -340 29 -88 54 -164 55 -170 1 -5 13 -44
27 -85 14 -41 75 -228 136 -415 l110 -340 552 0 c360 0 553 3 555 10 4 14 220
683 299 925 91 279 187 576 310 955 58 182 117 362 130 400 13 39 71 219 130
400 58 182 112 348 120 370 7 22 61 189 120 370 59 182 135 416 169 520 35
105 61 192 59 195 -6 7 -1082 7 -1093 0 -8 -5 -64 -189 -76 -248 -2 -12 -40
-152 -83 -310 -71 -260 -296 -1086 -408 -1502 -24 -91 -70 -259 -102 -375 -32
-115 -73 -267 -92 -337 -19 -71 -37 -128 -40 -128 -3 0 -18 46 -32 102 -14 57
-36 137 -47 178 -11 41 -22 82 -24 90 -2 8 -45 168 -96 355 -51 187 -98 363
-105 390 -27 100 -125 465 -185 685 -34 124 -63 233 -65 244 -3 10 -12 44 -21
75 -9 31 -20 72 -25 91 -4 19 -21 87 -39 150 -17 63 -33 123 -35 133 -2 9 -6
21 -9 25 -3 5 -8 22 -11 38 -3 16 -16 70 -31 119 -14 50 -27 98 -29 109 -3 10
-11 42 -19 70 l-15 51 -551 0 c-512 0 -550 -1 -550 -17z"/>
</g>
</svg>
